<svg width="220" height="40" viewBox="0 0 347 60" fill="none" xmlns="http://www.w3.org/2000/svg" class="hidden md:block"><g clip-path="url(#clip0_6009_46)"><rect x="0.0513763" y="0.0831909" width="59.2593" height="59.2593" rx="12.5926" fill="#FAFAFA"></rect><path d="M32.615 10.7552C32.615 12.2231 32.2087 13.3819 31.3976 14.2318C30.914 14.7383 30.3133 15.0927 29.5964 15.2973C28.8046 15.4162 27.7845 15.3849 27.3626 15.3848C25.1221 15.3848 23.389 15.6628 21.6508 16.5126C19.9511 17.3624 18.6184 18.599 17.6526 20.2214C16.687 21.8051 16.2037 23.7751 16.2037 26.1314V27.7539H10.4094V33.3492H16.2037V59.3424H11.9025C5.35713 59.3423 0.0514742 54.036 0.0513763 47.4906V11.935C0.0513763 5.38945 5.35763 0.0831909 11.9032 0.0831909H32.615V10.7552ZM47.4588 0.0831909C54.0042 0.083386 59.3106 5.38957 59.3106 11.935V47.4906C59.3105 54.0361 54.0036 59.3424 47.4581 59.3424H22.6939V33.3492H29.906V27.7539H22.6939V26.1314C22.6939 24.3158 23.2155 23.0216 24.2586 22.249C25.3015 21.438 26.7084 21.0728 28.4303 21.0323H29.5551C29.5578 21.0389 29.5595 21.0431 29.5595 21.0431H32.5962L32.615 36.5987C32.615 39.9593 33.5224 42.5671 35.3378 44.4213C37.1534 46.2754 39.7034 47.2027 42.9868 47.2027C43.4889 47.2027 44.0687 47.1642 44.7251 47.087C45.3817 47.0097 45.9813 46.9327 46.522 46.8555V41.2348C46.1745 41.2734 45.8071 41.3119 45.421 41.3506C45.035 41.3892 44.6868 41.4084 44.3779 41.4084C43.1419 41.4084 42.1369 41.2152 41.3643 40.829C40.5918 40.4041 40.0316 39.8245 39.6839 39.0907C39.3363 38.3182 39.1624 37.3909 39.1623 36.3093V21.088H46.2898V15.5071H39.1623V0.0831909H47.4588Z" fill="#764AE2"></path></g><path d="M73.4974 49.4474V25.9019H68.1995V20.7859H73.4974V19.3025C73.4974 17.148 73.9389 15.3467 74.8219 13.8986C75.7049 12.4152 76.9234 11.285 78.4774 10.508C80.0668 9.73096 81.8857 9.34245 83.9342 9.34245C84.3228 9.34245 84.7642 9.37777 85.2587 9.44841C85.7532 9.48373 86.1594 9.53671 86.4772 9.60735V14.7993C86.1947 14.7286 85.8768 14.6933 85.5236 14.6933C85.1704 14.658 84.8879 14.6403 84.6759 14.6403C83.0866 14.6403 81.8151 15.0112 80.8615 15.7529C79.9078 16.4593 79.431 17.6425 79.431 19.3025V20.7859H86.0248V25.9019H79.431V49.4474H73.4974Z" fill="#FAFAFA"></path><path d="M86.0248 49.4474V20.7859H91.7466V26.5606L91.2168 25.7129C91.8525 23.841 92.8768 22.4989 94.2895 21.6865C95.7023 20.8389 97.3976 20.415 99.3755 20.415H101.124V25.8719H98.6338C96.6559 25.8719 95.0489 26.4899 93.8127 27.7261C92.6119 28.927 92.0114 30.6576 92.0114 32.918V49.4474H86.0248Z" fill="#FAFAFA"></path><path d="M113.749 50.0832C110.994 50.0832 108.469 49.4298 106.173 48.123C103.913 46.8162 102.111 45.0325 100.769 42.7721C99.427 40.5117 98.7559 37.951 98.7559 35.0902C98.7559 32.194 99.427 29.6334 100.769 27.4082C102.111 25.1478 103.913 23.3818 106.173 22.1104C108.433 20.8035 110.959 20.1501 113.749 20.1501C116.574 20.1501 119.1 20.8035 121.325 22.1104C123.585 23.3818 125.369 25.1478 126.676 27.4082C128.018 29.6334 128.689 32.194 128.689 35.0902C128.689 37.9864 128.018 40.5647 126.676 42.8251C125.334 45.0855 123.532 46.8691 121.272 48.176C119.011 49.4474 116.504 50.0832 113.749 50.0832ZM113.749 44.5204C115.444 44.5204 116.945 44.1142 118.252 43.3019C119.559 42.4896 120.583 41.377 121.325 39.9642C122.102 38.5161 122.49 36.8915 122.49 35.0902C122.49 33.2889 122.102 31.6819 121.325 30.2691C120.583 28.8563 119.559 27.7438 118.252 26.9314C116.945 26.1191 115.444 25.7129 113.749 25.7129C112.089 25.7129 110.588 26.1191 109.246 26.9314C107.939 27.7438 106.897 28.8563 106.12 30.2691C105.378 31.6819 105.007 33.2889 105.007 35.0902C105.007 36.8915 105.378 38.5161 106.12 39.9642C106.897 41.377 107.939 42.4896 109.246 43.3019C110.588 44.1142 112.089 44.5204 113.749 44.5204Z" fill="#FAFAFA"></path><path d="M129.236 49.4474V20.7859H134.957V26.4016L134.269 25.6599C134.975 23.8587 136.105 22.4989 137.659 21.5806C139.213 20.6269 141.015 20.1501 143.063 20.1501C145.182 20.1501 147.054 20.6093 148.679 21.5276C150.304 22.4459 151.575 23.7174 152.493 25.3421C153.412 26.9668 153.871 28.8387 153.871 30.9578V49.4474H147.937V32.5472C147.937 31.0991 147.672 29.8806 147.143 28.8916C146.613 27.8674 145.853 27.0904 144.864 26.5606C143.911 25.9955 142.816 25.7129 141.58 25.7129C140.344 25.7129 139.231 25.9955 138.242 26.5606C137.288 27.0904 136.547 27.8674 136.017 28.8916C135.487 29.9159 135.222 31.1344 135.222 32.5472V49.4474H129.236Z" fill="#FAFAFA"></path><path d="M167.377 49.7653C164.375 49.7653 162.044 48.9177 160.384 47.2223C158.724 45.527 157.894 43.143 157.894 40.0702V25.8889H155.136C155.136 25.8889 154.564 24.5135 154.083 23.895C153.624 23.3042 152.789 22.3338 152.789 22.3338L152.861 20.7859H153.656C154.998 20.7859 156.04 20.3974 156.781 19.6204C157.523 18.8433 157.894 17.7837 157.894 16.4416V14.2165H163.881V20.7859H170.397V25.8889H163.881V39.8053C163.881 40.7942 164.04 41.6419 164.357 42.3483C164.675 43.0193 165.187 43.5491 165.894 43.9376C166.6 44.2908 167.518 44.4674 168.649 44.4674C168.931 44.4674 169.249 44.4498 169.602 44.4145C169.955 44.3791 170.291 44.3438 170.609 44.3085V49.4474C170.114 49.5181 169.567 49.5887 168.967 49.6594C168.366 49.73 167.836 49.7653 167.377 49.7653Z" fill="#FAFAFA"></path><path d="M171.153 49.4474V20.7859H177.14V49.4474H171.153ZM171.153 16.8655V9.9782H177.14V16.8655H171.153Z" fill="#FAFAFA"></path><path d="M192.298 50.0832C189.437 50.0832 186.894 49.4298 184.669 48.123C182.479 46.7808 180.766 44.9796 179.53 42.7191C178.294 40.4234 177.676 37.8627 177.676 35.0372C177.676 32.141 178.294 29.5804 179.53 27.3553C180.802 25.1302 182.497 23.3818 184.616 22.1104C186.735 20.8035 189.137 20.1501 191.821 20.1501C193.976 20.1501 195.9 20.521 197.596 21.2627C199.291 22.0044 200.722 23.0287 201.887 24.3355C203.053 25.607 203.936 27.0727 204.536 28.7327C205.172 30.3927 205.49 32.1587 205.49 34.0306C205.49 34.4897 205.472 34.9666 205.437 35.461C205.401 35.9555 205.331 36.4146 205.225 36.8385H182.391V32.0704H201.834L198.973 34.2425C199.326 32.5119 199.203 30.9755 198.602 29.6334C198.037 28.2559 197.154 27.1787 195.953 26.4016C194.788 25.5893 193.41 25.1831 191.821 25.1831C190.232 25.1831 188.819 25.5893 187.583 26.4016C186.347 27.1787 185.393 28.3089 184.722 29.7923C184.051 31.2404 183.786 33.0063 183.927 35.0902C183.751 37.0327 184.016 38.7281 184.722 40.1761C185.464 41.6242 186.488 42.7544 187.795 43.5668C189.137 44.3791 190.656 44.7853 192.351 44.7853C194.082 44.7853 195.547 44.3968 196.748 43.6198C197.984 42.8427 198.956 41.8361 199.662 40.6L204.536 42.984C203.971 44.3262 203.088 45.5447 201.887 46.6396C200.722 47.6991 199.309 48.5468 197.649 49.1826C196.024 49.783 194.24 50.0832 192.298 50.0832Z" fill="#FAFAFA"></path><path d="M206.034 49.4474V20.7859H211.756V26.5606L211.226 25.7129C211.862 23.841 212.886 22.4989 214.299 21.6865C215.712 20.8389 217.407 20.415 219.385 20.415H221.133V25.8719H218.643C216.665 25.8719 215.058 26.4899 213.822 27.7261C212.621 28.927 212.021 30.6576 212.021 32.918V49.4474H206.034Z" fill="#FAFAFA"></path><path d="M232.845 49.7653C229.843 49.7653 227.512 48.9177 225.852 47.2223C224.192 45.527 223.362 43.143 223.362 40.0702V25.8772H218.329V20.7859H219.124C220.466 20.7859 221.508 20.3974 222.25 19.6204C222.991 18.8433 223.362 17.7837 223.362 16.4416V14.2165H229.349V20.7859H235.865V25.8772H229.349V39.8053C229.349 40.7942 229.508 41.6419 229.826 42.3483C230.143 43.0193 230.656 43.5491 231.362 43.9376C232.068 44.2908 232.987 44.4674 234.117 44.4674C234.399 44.4674 234.717 44.4498 235.07 44.4145C235.424 44.3791 235.759 44.3438 236.077 44.3085V49.4474C235.583 49.5181 235.035 49.5887 234.435 49.6594C233.834 49.73 233.305 49.7653 232.845 49.7653Z" fill="#FAFAFA"></path><path d="M249.931 50.0832C247.177 50.0832 244.651 49.4298 242.355 48.123C240.095 46.8162 238.294 45.0325 236.952 42.7721C235.61 40.5117 234.938 37.951 234.938 35.0902C234.938 32.194 235.61 29.6334 236.952 27.4082C238.294 25.1478 240.095 23.3818 242.355 22.1104C244.616 20.8035 247.141 20.1501 249.931 20.1501C252.757 20.1501 255.282 20.8035 257.507 22.1104C259.768 23.3818 261.551 25.1478 262.858 27.4082C264.2 29.6334 264.871 32.194 264.871 35.0902C264.871 37.9864 264.2 40.5647 262.858 42.8251C261.516 45.0855 259.715 46.8691 257.454 48.176C255.194 49.4474 252.686 50.0832 249.931 50.0832ZM249.931 44.5204C251.627 44.5204 253.128 44.1142 254.435 43.3019C255.741 42.4896 256.766 41.377 257.507 39.9642C258.284 38.5161 258.673 36.8915 258.673 35.0902C258.673 33.2889 258.284 31.6819 257.507 30.2691C256.766 28.8563 255.741 27.7438 254.435 26.9314C253.128 26.1191 251.627 25.7129 249.931 25.7129C248.271 25.7129 246.77 26.1191 245.428 26.9314C244.121 27.7438 243.08 28.8563 242.303 30.2691C241.561 31.6819 241.19 33.2889 241.19 35.0902C241.19 36.8915 241.561 38.5161 242.303 39.9642C243.08 41.377 244.121 42.4896 245.428 43.3019C246.77 44.1142 248.271 44.5204 249.931 44.5204Z" fill="#FAFAFA"></path><path d="M271.841 49.4474L261.987 20.7859H268.345L275.868 43.6198H273.642L281.324 20.7859H286.781L294.41 43.6198H292.185L299.761 20.7859H306.118L296.211 49.4474H290.808L283.073 26.0838H285.033L277.298 49.4474H271.841Z" fill="#FAFAFA"></path><path d="M317.864 50.0832C315.003 50.0832 312.46 49.4298 310.235 48.123C308.045 46.7808 306.332 44.9796 305.096 42.7191C303.86 40.4234 303.242 37.8627 303.242 35.0372C303.242 32.141 303.86 29.5804 305.096 27.3553C306.368 25.1302 308.063 23.3818 310.182 22.1104C312.301 20.8035 314.703 20.1501 317.387 20.1501C319.542 20.1501 321.467 20.521 323.162 21.2627C324.857 22.0044 326.288 23.0287 327.453 24.3355C328.619 25.607 329.502 27.0727 330.102 28.7327C330.738 30.3927 331.056 32.1587 331.056 34.0306C331.056 34.4897 331.038 34.9666 331.003 35.461C330.967 35.9555 330.897 36.4146 330.791 36.8385H307.957V32.0704H327.4L324.539 34.2425C324.893 32.5119 324.769 30.9755 324.168 29.6334C323.603 28.2559 322.72 27.1787 321.52 26.4016C320.354 25.5893 318.977 25.1831 317.387 25.1831C315.798 25.1831 314.385 25.5893 313.149 26.4016C311.913 27.1787 310.959 28.3089 310.288 29.7923C309.617 31.2404 309.352 33.0063 309.493 35.0902C309.317 37.0327 309.582 38.7281 310.288 40.1761C311.03 41.6242 312.054 42.7544 313.361 43.5668C314.703 44.3791 316.222 44.7853 317.917 44.7853C319.648 44.7853 321.113 44.3968 322.314 43.6198C323.55 42.8427 324.522 41.8361 325.228 40.6L330.102 42.984C329.537 44.3262 328.654 45.5447 327.453 46.6396C326.288 47.6991 324.875 48.5468 323.215 49.1826C321.59 49.783 319.807 50.0832 317.864 50.0832Z" fill="#FAFAFA"></path><path d="M331.6 49.4474V20.7859H337.322V26.5606L336.792 25.7129C337.428 23.841 338.452 22.4989 339.865 21.6865C341.278 20.8389 342.973 20.415 344.951 20.415H346.699V25.8719H344.209C342.232 25.8719 340.624 26.4899 339.388 27.7261C338.187 28.927 337.587 30.6576 337.587 32.918V49.4474H331.6Z" fill="#FAFAFA"></path><defs><clipPath id="clip0_6009_46"><rect x="0.0513763" y="0.0831909" width="59.2593" height="59.2593" rx="12.5926" fill="white"></rect></clipPath></defs></svg>